M48
;DRILL file {KiCad (5.0.1)-3} date 01/10/2020 22:01:27
;FORMAT={-:-/ absolute / inch / decimal}
FMAT,2
INCH,TZ
T1C0.0079
T2C0.0157
T3C0.0197
T4C0.0217
T5C0.0315
T6C0.0335
T7C0.0374
T8C0.0394
T9C0.0433
T10C0.0472
T11C0.0591
T12C0.0945
T13C0.1260
T14C0.1772
%
G90
G05
M72
T1
X2.874Y-3.7603
X3.0703Y-3.0118
X3.0709Y-3.5433
X3.0746Y-3.7264
X3.1496Y-3.6516
X3.2246Y-2.5728
X3.2289Y-3.2874
X3.3268Y-3.6614
X3.3563Y-3.7992
X3.622Y-3.3268
X3.8386Y-4.0551
X4.4882Y-2.2441
X4.5079Y-2.0669
X4.5276Y-2.2441
X4.5276Y-3.9764
X4.6063Y-1.939
X4.6358Y-1.998
X4.6457Y-2.2047
X4.685Y-3.6811
X4.685Y-3.9764
X4.7146Y-1.9094
X4.7766Y-2.1949
X4.8031Y-1.7815
X4.8327Y-2.0669
X4.8419Y-1.8307
X4.8425Y-1.8701
X4.8425Y-2.4213
X4.8622Y-1.6437
X4.8622Y-2.0079
X4.8622Y-2.185
X4.8622Y-2.6378
X4.8622Y-2.8937
X4.8622Y-3.4252
X4.8622Y-3.5433
X4.8819Y-1.9094
X4.9016Y-1.8307
X4.9016Y-2.2638
X4.9409Y-1.8307
X4.9409Y-2.1457
X4.9409Y-2.185
X4.9409Y-2.2638
X4.9803Y-1.6142
X4.9803Y-2.0079
X4.9803Y-2.1457
X4.9803Y-2.185
X4.9803Y-2.2638
X5.Y-2.5394
X5.1969Y-1.811
X5.2756Y-2.2638
X5.2953Y-1.811
X5.2953Y-1.8504
X5.315Y-2.1654
X5.315Y-2.2638
X5.374Y-3.1746
X5.3937Y-2.3228
X5.4528Y-2.126
X5.4528Y-2.2441
X5.5118Y-2.3228
X5.6102Y-3.1496
X5.6496Y-3.563
X5.748Y-2.3819
X5.748Y-3.4646
X5.748Y-3.7795
X5.748Y-4.0945
X5.7874Y-1.5748
X5.7874Y-2.8543
X5.7874Y-3.4252
X5.8268Y-2.185
X5.8661Y-1.6142
X5.8858Y-3.2246
X5.9843Y-3.0906
T2
X1.2205Y-1.5748
X1.2205Y-1.7717
X1.2205Y-1.9685
X1.2205Y-2.1654
X1.2205Y-2.3622
X1.2205Y-2.5591
X1.2205Y-2.7559
X1.2205Y-2.9528
X1.2205Y-3.1496
X1.2205Y-3.3465
X1.2205Y-3.5433
X1.2205Y-3.7402
X1.2205Y-3.937
X1.2205Y-4.1339
X1.2205Y-4.3307
X1.2205Y-4.5276
X1.2205Y-4.7244
X1.4567Y-2.1654
X1.4567Y-4.1339
X1.5748Y-1.2205
X1.5748Y-1.9291
X1.5748Y-2.0472
X1.5748Y-2.1654
X1.5748Y-2.2835
X1.5748Y-2.4016
X1.5748Y-2.5197
X1.5748Y-2.6378
X1.5748Y-2.7559
X1.5748Y-2.874
X1.5748Y-2.9921
X1.5748Y-3.3071
X1.5748Y-3.4252
X1.5748Y-3.5433
X1.5748Y-3.6614
X1.5748Y-3.7795
X1.5748Y-3.8976
X1.5748Y-4.0157
X1.5748Y-4.1339
X1.5748Y-4.252
X1.5748Y-4.3701
X1.5748Y-5.0787
X1.7717Y-1.2205
X1.7717Y-5.0787
X1.8898Y-1.9291
X1.8898Y-2.0472
X1.8898Y-2.1654
X1.8898Y-2.2835
X1.8898Y-2.4016
X1.8898Y-2.5197
X1.8898Y-2.6378
X1.8898Y-2.7559
X1.8898Y-2.874
X1.8898Y-2.9921
X1.8898Y-3.3071
X1.8898Y-3.4252
X1.8898Y-3.5433
X1.8898Y-3.6614
X1.8898Y-3.7795
X1.8898Y-3.8976
X1.8898Y-4.0157
X1.8898Y-4.1339
X1.8898Y-4.252
X1.8898Y-4.3701
X1.9291Y-3.0709
X1.9291Y-3.1496
X1.9291Y-3.2283
X2.1654Y-1.9291
X2.1654Y-2.5591
X2.1654Y-2.9528
X2.1654Y-3.3465
X2.1654Y-3.7402
X2.2835Y-2.2835
X2.3228Y-4.0157
X2.3622Y-2.3622
X2.3622Y-2.7559
X2.3622Y-3.1496
X2.3622Y-3.5433
X2.3622Y-3.937
X2.4016Y-1.6142
X2.4016Y-1.7717
X2.4016Y-4.5276
X2.4016Y-4.685
X2.4409Y-1.6142
X2.4409Y-1.7717
X2.4409Y-4.5276
X2.4409Y-4.685
X2.4803Y-1.6142
X2.4803Y-1.7717
X2.4803Y-4.5276
X2.4803Y-4.685
X2.5Y-1.8504
X2.5Y-1.8898
X2.5Y-2.0472
X2.5Y-2.0866
X2.5Y-4.2126
X2.5Y-4.252
X2.5Y-4.4094
X2.5Y-4.4488
X2.5197Y-3.9764
X2.5394Y-1.8504
X2.5394Y-1.8898
X2.5394Y-2.0472
X2.5394Y-2.0866
X2.5394Y-4.2126
X2.5394Y-4.252
X2.5394Y-4.4094
X2.5394Y-4.4488
X2.5591Y-2.2835
X2.5591Y-2.9528
X2.5591Y-3.3465
X2.5984Y-1.8504
X2.5984Y-1.8898
X2.5984Y-2.0472
X2.5984Y-2.0866
X2.5984Y-4.2126
X2.5984Y-4.252
X2.5984Y-4.4094
X2.5984Y-4.4488
X2.5984Y-4.6457
X2.6575Y-1.8504
X2.6575Y-1.8898
X2.6575Y-2.0472
X2.6575Y-2.0866
X2.6575Y-4.2126
X2.6575Y-4.252
X2.6575Y-4.4094
X2.6575Y-4.4488
X2.6772Y-3.9764
X2.6969Y-1.8504
X2.6969Y-1.8898
X2.6969Y-2.0472
X2.6969Y-2.0866
X2.6969Y-4.2126
X2.6969Y-4.252
X2.6969Y-4.4094
X2.6969Y-4.4488
X2.7165Y-1.6142
X2.7165Y-1.7717
X2.7165Y-4.5276
X2.7165Y-4.685
X2.7559Y-1.6142
X2.7559Y-1.7717
X2.7559Y-2.7559
X2.7559Y-3.1496
X2.7559Y-3.5433
X2.7559Y-4.5276
X2.7559Y-4.685
X2.7953Y-1.6142
X2.7953Y-1.7717
X2.7953Y-4.5276
X2.7953Y-4.685
X2.8346Y-2.2441
X2.8346Y-2.3228
X2.874Y-4.5276
X2.9134Y-2.2441
X2.9134Y-2.3228
X2.9528Y-3.0315
X2.9921Y-1.8504
X2.9921Y-2.7165
X2.9921Y-3.9764
X3.0118Y-3.878
X3.0315Y-4.0551
X3.0709Y-1.8504
X3.0709Y-3.2677
X3.0709Y-3.4646
X3.1496Y-1.8504
X3.1496Y-2.126
X3.1496Y-2.2047
X3.1496Y-2.2835
X3.1496Y-2.3622
X3.1496Y-4.1732
X3.2283Y-1.8504
X3.2283Y-2.126
X3.2283Y-2.2047
X3.2283Y-2.2835
X3.2283Y-2.3622
X3.2677Y-2.7165
X3.2677Y-3.0315
X3.3071Y-1.8504
X3.3465Y-3.1102
X3.3465Y-3.2677
X3.3858Y-1.8504
X3.4252Y-1.9685
X3.4252Y-2.874
X3.4252Y-3.9764
X3.4252Y-4.3307
X3.4252Y-4.5276
X3.4646Y-1.8504
X3.4646Y-3.5433
X3.5039Y-1.9685
X3.5039Y-4.3307
X3.5039Y-4.5276
X3.5433Y-1.8504
X3.5433Y-3.1496
X3.5827Y-1.9685
X3.5827Y-4.3307
X3.6024Y-1.8504
X3.6024Y-1.8898
X3.6024Y-2.0472
X3.6024Y-2.0866
X3.6024Y-4.2126
X3.6024Y-4.252
X3.622Y-2.9528
X3.6417Y-1.8504
X3.6417Y-1.8898
X3.6417Y-2.0472
X3.6417Y-2.0866
X3.6417Y-4.2126
X3.6417Y-4.252
X3.6614Y-1.9685
X3.6614Y-2.2835
X3.6614Y-3.9764
X3.6614Y-4.3307
X3.7008Y-1.8504
X3.7008Y-1.8898
X3.7008Y-2.0472
X3.7008Y-2.0866
X3.7008Y-4.2126
X3.7008Y-4.252
X3.7402Y-1.9685
X3.7402Y-3.3465
X3.7402Y-4.3307
X3.7598Y-1.8504
X3.7598Y-1.8898
X3.7598Y-2.0472
X3.7598Y-2.0866
X3.7598Y-4.2126
X3.7598Y-4.252
X3.7992Y-1.8504
X3.7992Y-1.8898
X3.7992Y-2.0472
X3.7992Y-2.0866
X3.7992Y-4.2126
X3.7992Y-4.252
X3.8189Y-1.9685
X3.8189Y-4.3307
X3.8976Y-1.9685
X3.8976Y-4.3307
X3.9764Y-1.9685
X3.9764Y-4.3307
X4.0945Y-1.9291
X4.0945Y-2.0079
X4.0945Y-2.2441
X4.0945Y-2.3228
X4.0945Y-3.5827
X4.0945Y-3.7402
X4.0945Y-3.937
X4.1732Y-1.9291
X4.1732Y-2.0079
X4.1732Y-2.0866
X4.1732Y-2.1654
X4.1732Y-2.2441
X4.1732Y-2.3228
X4.1732Y-2.6772
X4.1732Y-2.9528
X4.1732Y-3.4252
X4.2323Y-3.937
X4.2323Y-4.0157
X4.252Y-1.9685
X4.252Y-2.0472
X4.252Y-2.126
X4.252Y-2.2047
X4.252Y-2.2835
X4.2717Y-3.9764
X4.2913Y-3.7402
X4.311Y-3.937
X4.311Y-4.0157
X4.3504Y-3.9764
X4.3701Y-3.5827
X4.3701Y-4.1732
X4.3898Y-3.937
X4.3898Y-4.0157
X4.4094Y-1.3386
X4.4094Y-1.9291
X4.4094Y-2.6772
X4.4094Y-2.9528
X4.4488Y-1.5748
X4.4488Y-3.4252
X4.4882Y-1.7323
X4.5276Y-1.2205
X4.5276Y-2.4803
X4.5276Y-5.0787
X4.5669Y-3.5433
X4.5669Y-3.8583
X4.5669Y-4.0945
X4.6063Y-1.6929
X4.6063Y-2.6772
X4.6063Y-2.9528
X4.6063Y-4.8819
X4.6063Y-4.9606
X4.6457Y-4.8819
X4.6457Y-4.9606
X4.685Y-4.8819
X4.685Y-4.9606
X4.7244Y-1.2205
X4.7244Y-4.1339
X4.7244Y-4.8819
X4.7244Y-4.9606
X4.7244Y-5.0787
X4.7638Y-2.3622
X4.7638Y-2.6772
X4.7638Y-2.9528
X4.7638Y-3.4252
X4.7638Y-3.5433
X4.7638Y-3.7795
X4.8031Y-4.0551
X4.8819Y-4.3701
X4.8819Y-4.5276
X4.8819Y-4.685
X4.9213Y-1.2205
X4.9213Y-4.3701
X4.9213Y-4.5276
X4.9213Y-4.685
X4.9213Y-5.0787
X4.9606Y-2.4803
X4.9606Y-4.3701
X4.9606Y-4.5276
X4.9606Y-4.685
X5.Y-4.0551
X5.0394Y-1.4961
X5.0394Y-1.8898
X5.0394Y-2.2441
X5.0394Y-2.9528
X5.0394Y-3.4252
X5.0394Y-3.5433
X5.0394Y-3.7795
X5.1181Y-1.2205
X5.1181Y-5.0787
X5.1575Y-2.8346
X5.1575Y-4.0945
X5.1575Y-4.252
X5.1969Y-3.1496
X5.2362Y-1.6142
X5.2362Y-2.0079
X5.2362Y-4.0945
X5.2362Y-4.252
X5.2362Y-4.4488
X5.2756Y-4.5669
X5.315Y-3.5433
X5.315Y-3.8189
X5.3543Y-2.5197
X5.3543Y-2.7165
X5.3543Y-2.9921
X5.3543Y-3.3071
X5.3937Y-4.5669
X5.4331Y-3.4252
X5.4724Y-1.7323
X5.5118Y-1.6142
X5.5118Y-5.0787
X5.5512Y-4.5669
X5.5906Y-2.0079
X5.5906Y-2.5984
X5.5906Y-2.7165
X5.5906Y-3.5039
X5.5906Y-3.7008
X5.5906Y-4.0157
X5.6299Y-1.4961
X5.6299Y-4.6457
X5.6299Y-4.9213
X5.7087Y-2.6772
X5.7087Y-2.7559
X5.7087Y-2.8346
X5.7087Y-3.1102
X5.7087Y-3.189
X5.7087Y-4.7244
X5.748Y-1.8898
X5.748Y-2.0079
X5.748Y-2.2047
X5.748Y-4.3307
X5.8268Y-4.4094
X5.8661Y-3.4646
X5.8661Y-3.7402
X5.8661Y-3.8189
X5.8661Y-3.8976
X5.8661Y-4.0157
X5.8661Y-4.1339
X5.9055Y-1.7717
X5.9055Y-2.0079
X5.9055Y-2.3228
X5.9055Y-2.4803
X5.9055Y-4.252
X5.9055Y-4.4882
X5.9843Y-1.5748
X5.9843Y-3.4646
X5.9843Y-3.7402
X5.9843Y-3.8189
X5.9843Y-4.3307
X5.9843Y-4.5669
X6.0236Y-3.189
X6.0236Y-4.0157
X6.063Y-1.4961
X6.063Y-1.7323
X6.063Y-4.4094
X6.063Y-4.6457
X6.1024Y-1.2205
X6.1024Y-3.2677
X6.1024Y-4.0945
X6.1417Y-3.6614
X6.1417Y-3.7402
X6.1417Y-3.8189
X6.1417Y-4.4882
X6.1417Y-4.7244
X6.1811Y-3.8976
X6.2992Y-1.2205
X6.2992Y-4.7244
X6.4567Y-3.7402
X6.4567Y-3.8189
X6.4961Y-1.6929
X6.4961Y-3.7795
X6.4961Y-4.5669
X6.4961Y-4.7244
X6.5354Y-1.6535
X6.5354Y-3.7402
X6.5354Y-3.8189
X6.5354Y-4.5276
X6.5748Y-1.6929
X6.5748Y-3.189
X6.5748Y-3.3071
X6.5748Y-3.7795
X6.5748Y-4.1339
X6.5748Y-4.5669
X6.6142Y-1.6535
X6.6142Y-3.7402
X6.6142Y-3.8189
X6.6142Y-4.5276
X6.6535Y-1.6929
X6.6535Y-3.7795
X6.6535Y-4.5669
X6.6535Y-4.7638
X6.6929Y-1.6535
X6.6929Y-3.189
X6.6929Y-3.3071
X6.6929Y-3.7402
X6.6929Y-4.1339
X6.6929Y-4.5276
X6.7323Y-1.6929
X6.7323Y-4.5669
X6.7717Y-4.5276
X6.811Y-4.5669
X6.8504Y-4.5276
X6.8898Y-4.5669
X6.9291Y-4.5276
X6.9685Y-4.5669
X7.0472Y-1.4961
X7.0472Y-1.6142
X7.0472Y-1.7323
X7.0472Y-1.8504
X7.0472Y-2.874
X7.0472Y-2.9921
X7.0472Y-3.3071
X7.0472Y-3.4252
X7.0472Y-3.6614
X7.0472Y-3.7795
X7.0472Y-3.937
X7.0472Y-4.0945
X7.0472Y-4.2126
X7.0472Y-4.4488
X7.0472Y-4.5669
X7.0866Y-1.2205
X7.0866Y-2.5197
X7.0866Y-2.6378
X7.126Y-1.4961
X7.126Y-1.6142
X7.126Y-1.7323
X7.126Y-1.8504
X7.1654Y-2.0866
X7.1654Y-2.1949
X7.1654Y-2.5197
X7.1654Y-2.6378
X7.1654Y-2.874
X7.1654Y-2.9921
X7.1654Y-3.3071
X7.1654Y-3.4252
X7.1654Y-3.6614
X7.1654Y-3.7795
X7.1654Y-3.937
X7.1654Y-4.0945
X7.1654Y-4.2126
X7.1654Y-4.4488
X7.1654Y-4.5669
X7.2441Y-1.6142
X7.2441Y-1.7323
X7.2441Y-1.8504
X7.2441Y-1.9685
X7.2441Y-2.0866
X7.2441Y-2.1949
X7.2441Y-2.5197
X7.2441Y-2.6378
X7.2835Y-2.874
X7.2835Y-2.9921
X7.2835Y-3.3071
X7.2835Y-3.937
X7.3228Y-1.6142
X7.3228Y-1.7323
X7.3228Y-1.8504
X7.3228Y-1.9685
X7.3228Y-2.0866
X7.3228Y-2.1949
X7.3228Y-2.5197
X7.3228Y-2.6378
X7.3228Y-4.5669
X7.4016Y-1.6142
X7.4016Y-1.7323
X7.4016Y-1.8504
X7.4016Y-1.9685
X7.4016Y-2.0866
X7.4016Y-2.1949
X7.4016Y-2.5197
X7.4016Y-2.6378
X7.4016Y-2.874
X7.4016Y-2.9921
X7.4016Y-3.3071
X7.4409Y-4.5669
X7.4409Y-4.7244
X7.4803Y-1.2205
X7.4803Y-2.0866
X7.4803Y-2.1949
X7.4803Y-2.5197
X7.4803Y-2.6378
X7.4803Y-5.0787
X7.5197Y-2.874
X7.5197Y-2.9921
X7.5197Y-3.3071
X7.5591Y-4.5669
X7.5591Y-4.7244
X7.6378Y-2.9921
X7.6378Y-3.3071
X7.6772Y-1.2205
X7.6772Y-5.0787
X7.7165Y-4.4882
X7.7559Y-2.9921
X7.7559Y-3.3071
X7.8346Y-1.5748
X7.8346Y-1.6929
X7.8346Y-1.811
X7.8346Y-2.1654
X7.874Y-1.2205
X7.874Y-2.9921
X7.874Y-3.3071
X7.874Y-3.5433
X7.874Y-3.937
X7.874Y-4.4094
X7.874Y-4.8425
X7.874Y-5.0787
X7.9528Y-4.3307
X7.9528Y-4.4094
X7.9921Y-2.9921
X7.9921Y-3.3071
X7.9921Y-4.5669
X7.9921Y-4.9213
X7.9921Y-5.0394
X8.0315Y-2.1949
X8.0315Y-4.0551
X8.0315Y-4.3307
X8.0315Y-4.4094
X8.0709Y-1.2205
X8.0709Y-2.9528
X8.0709Y-4.8425
X8.0709Y-5.0787
X8.1102Y-2.874
X8.1102Y-3.3071
X8.1102Y-4.252
X8.1102Y-4.3307
X8.1102Y-4.4094
X8.1496Y-2.1949
X8.1496Y-2.8346
X8.189Y-4.6939
X8.2283Y-2.7953
X8.2283Y-3.2677
X8.2677Y-1.2205
X8.2677Y-2.1949
X8.2677Y-3.8583
X8.3071Y-2.7953
X8.3071Y-3.189
X8.3465Y-4.6939
X8.3858Y-1.5748
X8.3858Y-1.6929
X8.3858Y-1.811
X8.3858Y-2.1949
X8.3858Y-2.8346
X8.3858Y-3.1496
X8.4252Y-2.874
X8.4252Y-3.1102
X8.4252Y-4.252
X8.4252Y-4.3307
X8.4252Y-4.4094
X8.4646Y-1.2205
X8.4646Y-2.9528
X8.4646Y-3.0315
X8.5039Y-2.1949
X8.5039Y-4.0551
X8.5039Y-4.3307
X8.5039Y-4.4094
X8.5039Y-4.6939
X8.5827Y-4.3307
X8.5827Y-4.4094
X8.5827Y-4.8819
X8.5827Y-4.9606
X8.622Y-1.7323
X8.6614Y-1.2205
X8.6614Y-3.1496
X8.6614Y-3.5433
X8.6614Y-3.937
X8.6614Y-4.4094
X8.6614Y-4.6939
X8.6614Y-4.8819
X8.6614Y-4.9606
X8.7008Y-2.1654
X8.7402Y-1.9291
X8.7402Y-2.0472
X9.0157Y-1.5748
X9.0157Y-1.7717
X9.0157Y-1.9685
X9.0157Y-2.1654
X9.0157Y-2.3622
X9.0157Y-2.5591
X9.0157Y-2.7559
X9.0157Y-2.9528
X9.0157Y-3.1496
X9.0157Y-3.3465
X9.0157Y-3.5433
X9.0157Y-3.7402
X9.0157Y-3.937
X9.0157Y-4.1339
X9.0157Y-4.2913
T3
X7.2283Y-1.3386
X7.256Y-1.2718
X7.256Y-1.4054
X7.3228Y-1.2441
X7.3228Y-1.4331
X7.3896Y-1.2718
X7.3896Y-1.4054
X7.4173Y-1.3386
X7.2283Y-4.9606
X7.256Y-4.8938
X7.256Y-5.0274
X7.3228Y-4.8661
X7.3228Y-5.0551
X7.3896Y-4.8938
X7.3896Y-5.0274
X7.4173Y-4.9606
X1.2441Y-1.3386
X1.2718Y-1.2718
X1.2718Y-1.4054
X1.3386Y-1.2441
X1.3386Y-1.4331
X1.4054Y-1.2718
X1.4054Y-1.4054
X1.4331Y-1.3386
X5.1811Y-1.3386
X5.2088Y-1.2718
X5.2088Y-1.4054
X5.2756Y-1.2441
X5.2756Y-1.4331
X5.3424Y-1.2718
X5.3424Y-1.4054
X5.3701Y-1.3386
X2.4526Y-3.7282
X2.4803Y-3.6614
X2.4803Y-3.795
X2.5471Y-3.6337
X2.5471Y-3.8227
X2.6139Y-3.6614
X2.6139Y-3.795
X2.6416Y-3.7282
X3.6457Y-3.7402
X3.6733Y-3.6733
X3.6733Y-3.807
X3.7402Y-3.6457
X3.7402Y-3.8346
X3.807Y-3.6733
X3.807Y-3.807
X3.8346Y-3.7402
X1.2441Y-4.9606
X1.2718Y-4.8938
X1.2718Y-5.0274
X1.3386Y-4.8661
X1.3386Y-5.0551
X1.4054Y-4.8938
X1.4054Y-5.0274
X1.4331Y-4.9606
X3.6457Y-2.5591
X3.6733Y-2.4922
X3.6733Y-2.6259
X3.7402Y-2.4646
X3.7402Y-2.6535
X3.807Y-2.4922
X3.807Y-2.6259
X3.8346Y-2.5591
X8.8031Y-4.9606
X8.8308Y-4.8938
X8.8308Y-5.0274
X8.8976Y-4.8661
X8.8976Y-5.0551
X8.9645Y-4.8938
X8.9645Y-5.0274
X8.9921Y-4.9606
X2.4646Y-2.5591
X2.4922Y-2.4922
X2.4922Y-2.6259
X2.5591Y-2.4646
X2.5591Y-2.6535
X2.6259Y-2.4922
X2.6259Y-2.6259
X2.6535Y-2.5591
X5.1811Y-4.9606
X5.2088Y-4.8938
X5.2088Y-5.0274
X5.2756Y-4.8661
X5.2756Y-5.0551
X5.3424Y-4.8938
X5.3424Y-5.0274
X5.3701Y-4.9606
X8.8031Y-1.3386
X8.8308Y-1.2718
X8.8308Y-1.4054
X8.8976Y-1.2441
X8.8976Y-1.4331
X8.9645Y-1.2718
X8.9645Y-1.4054
X8.9921Y-1.3386
T5
X6.2205Y-3.1496
X6.3189Y-3.1496
X5.4331Y-4.0748
X5.4331Y-4.1732
X8.1102Y-1.3173
X8.1102Y-1.4173
X3.2283Y-3.937
X3.3071Y-3.937
X4.4488Y-4.8819
X4.4488Y-4.9803
X2.9921Y-2.3622
X3.0709Y-2.3622
X6.6323Y-3.937
X6.7323Y-3.937
X8.1102Y-1.9685
X8.1102Y-2.0669
X6.2583Y-1.5354
X6.3583Y-1.5354
X6.6323Y-2.3622
X6.7323Y-2.3622
X7.7346Y-4.6457
X7.8346Y-4.6457
T7
X4.5866Y-1.2992
X4.685Y-1.2992
X4.7835Y-1.2992
X4.8819Y-1.2992
X7.0472Y-4.8031
X7.0472Y-4.9016
X7.0472Y-5.
T8
X3.5827Y-4.4488
X3.5827Y-4.6063
X3.6614Y-4.4488
X3.6614Y-4.6063
X3.7402Y-4.4488
X3.7402Y-4.6063
X3.8189Y-4.4488
X3.8189Y-4.6063
X3.8976Y-4.4488
X3.8976Y-4.6063
X3.9764Y-4.4488
X3.9764Y-4.6063
X4.0551Y-4.4488
X4.0551Y-4.6063
X4.1339Y-4.4488
X4.1339Y-4.6063
X4.2126Y-4.4488
X4.2126Y-4.6063
X4.2913Y-4.4488
X4.2913Y-4.6063
X4.3701Y-4.4488
X4.3701Y-4.6063
X4.4488Y-4.4488
X4.5276Y-4.4488
X4.5276Y-4.5276
X4.5276Y-4.6063
X4.6063Y-4.4488
X4.6063Y-4.5276
X4.6063Y-4.6063
X4.685Y-4.4488
X4.685Y-4.5276
X4.685Y-4.6063
X6.2992Y-2.3622
X6.4961Y-2.3622
X6.2992Y-3.937
X6.4961Y-3.937
X4.585Y-1.4961
X4.685Y-1.4961
X4.785Y-1.4961
X5.4921Y-2.5157
X5.4921Y-2.815
T9
X8.3858Y-1.9685
X8.5858Y-1.9685
X7.6378Y-1.9685
X7.8378Y-1.9685
X2.774Y-2.1126
X2.874Y-2.1126
X2.974Y-2.1126
X6.063Y-2.9528
X6.063Y-3.3528
X3.3252Y-4.1866
X3.4252Y-4.1866
X3.5252Y-4.1866
X2.2228Y-2.1126
X2.3228Y-2.1126
X2.4228Y-2.1126
X2.774Y-4.1866
X2.874Y-4.1866
X2.974Y-4.1866
X8.8976Y-4.4488
X8.8976Y-4.6488
X3.8764Y-4.1866
X3.9764Y-4.1866
X4.0764Y-4.1866
X2.2228Y-4.1866
X2.3228Y-4.1866
X2.4228Y-4.1866
X3.8764Y-2.1126
X3.9764Y-2.1126
X4.0764Y-2.1126
X7.6378Y-1.4173
X7.8378Y-1.4173
X8.3858Y-1.4173
X8.5858Y-1.4173
X3.3252Y-2.1126
X3.4252Y-2.1126
X3.5252Y-2.1126
T10
X7.8346Y-2.3228
X7.8346Y-2.6181
X6.4567Y-4.9394
X6.4567Y-5.0394
X1.437Y-4.5276
X1.7323Y-4.5276
X1.437Y-3.7402
X1.7323Y-3.7402
X6.7717Y-4.9394
X6.7717Y-5.0394
X8.7008Y-2.3228
X8.7008Y-2.6181
X1.437Y-1.7717
X1.7323Y-1.7717
X5.8268Y-4.9394
X5.8268Y-5.0394
X8.1102Y-1.6142
X8.1102Y-1.7142
X1.437Y-2.5591
X1.7323Y-2.5591
X6.1417Y-4.9394
X6.1417Y-5.0394
T11
X6.3047Y-4.1161
X6.3047Y-4.3307
X6.3047Y-4.5453
X6.3047Y-3.3287
X6.3047Y-3.5433
X6.3047Y-3.7579
X6.3047Y-1.7539
X6.3047Y-1.9685
X6.3047Y-2.1831
X6.3047Y-2.5413
X6.3047Y-2.7559
X6.3047Y-2.9705
T12
X8.2677Y-2.9921
X8.2677Y-4.122
T13
X3.7402Y-3.7402
X1.3386Y-4.9606
X3.7402Y-2.5591
X8.8976Y-4.9606
X2.5591Y-2.5591
X5.2756Y-4.9606
X8.8976Y-1.3386
X7.3228Y-1.3386
X7.3228Y-4.9606
X1.3386Y-1.3386
X5.2756Y-1.3386
X2.5471Y-3.7282
T14
X6.5945Y-1.3386
X6.8898Y-1.3386
X3.9764Y-3.0118
X3.9764Y-3.3071
X7.9724Y-4.9606
X8.2677Y-4.9606
X1.437Y-3.1496
X1.7323Y-3.1496
T4
X5.5561Y-1.2352G85X5.5561Y-1.2096
G05
X5.8612Y-1.2352G85X5.8612Y-1.2096
G05
T6
X5.562Y-1.3829G85X5.562Y-1.3612
G05
X5.8553Y-1.3829G85X5.8553Y-1.3612
G05
T0
M30
