G04 #@! TF.GenerationSoftware,KiCad,Pcbnew,(5.0.1)-3*
G04 #@! TF.CreationDate,2020-10-01T22:01:30+02:00*
G04 #@! TF.ProjectId,QCW Ultimate,51435720556C74696D6174652E6B6963,rev?*
G04 #@! TF.SameCoordinates,Original*
G04 #@! TF.FileFunction,Legend,Bot*
G04 #@! TF.FilePolarity,Positive*
%FSLAX46Y46*%
G04 Gerber Fmt 4.6, Leading zero omitted, Abs format (unit mm)*
G04 Created by KiCad (PCBNEW (5.0.1)-3) date 01/10/2020 22:01:30*
%MOMM*%
%LPD*%
G01*
G04 APERTURE LIST*
%ADD10C,0.120000*%
%ADD11C,0.080000*%
%ADD12C,0.050000*%
%ADD13C,0.150000*%
G04 APERTURE END LIST*
D10*
G04 #@! TO.C,C3*
X125710000Y-120738748D02*
X125710000Y-121261252D01*
X124290000Y-120738748D02*
X124290000Y-121261252D01*
G04 #@! TO.C,C12*
X133710000Y-56261252D02*
X133710000Y-55738748D01*
X132290000Y-56261252D02*
X132290000Y-55738748D01*
G04 #@! TO.C,C13*
X133261252Y-48710000D02*
X132738748Y-48710000D01*
X133261252Y-47290000D02*
X132738748Y-47290000D01*
G04 #@! TO.C,D1*
X75000000Y-61250000D02*
X77000000Y-61250000D01*
X77000000Y-61250000D02*
X77000000Y-65150000D01*
X75000000Y-61250000D02*
X75000000Y-65150000D01*
G04 #@! TO.C,D7*
X85000000Y-98750000D02*
X85000000Y-94850000D01*
X83000000Y-98750000D02*
X83000000Y-94850000D01*
X85000000Y-98750000D02*
X83000000Y-98750000D01*
G04 #@! TO.C,Q1*
X61540000Y-52510000D02*
X61540000Y-49970000D01*
X59000000Y-52510000D02*
X59000000Y-49970000D01*
X56460000Y-52510000D02*
X56460000Y-49970000D01*
X64120000Y-35440000D02*
X64120000Y-34240000D01*
X64120000Y-37840000D02*
X64120000Y-36640000D01*
X64120000Y-40240000D02*
X64120000Y-39040000D01*
X53880000Y-35440000D02*
X53880000Y-34240000D01*
X53880000Y-37840000D02*
X53880000Y-36640000D01*
X53880000Y-40240000D02*
X53880000Y-39040000D01*
X63480000Y-34080000D02*
X64120000Y-34080000D01*
X61080000Y-34080000D02*
X62280000Y-34080000D01*
X58680000Y-34080000D02*
X59880000Y-34080000D01*
X56279000Y-34080000D02*
X57480000Y-34080000D01*
X53880000Y-34080000D02*
X55080000Y-34080000D01*
X64120000Y-49970000D02*
X64120000Y-40480000D01*
X53880000Y-49970000D02*
X53880000Y-40480000D01*
X53880000Y-40480000D02*
X64120000Y-40480000D01*
X53880000Y-49970000D02*
X64120000Y-49970000D01*
G04 #@! TO.C,Q2*
X67880000Y-49970000D02*
X78120000Y-49970000D01*
X67880000Y-40480000D02*
X78120000Y-40480000D01*
X67880000Y-49970000D02*
X67880000Y-40480000D01*
X78120000Y-49970000D02*
X78120000Y-40480000D01*
X67880000Y-34080000D02*
X69080000Y-34080000D01*
X70279000Y-34080000D02*
X71480000Y-34080000D01*
X72680000Y-34080000D02*
X73880000Y-34080000D01*
X75080000Y-34080000D02*
X76280000Y-34080000D01*
X77480000Y-34080000D02*
X78120000Y-34080000D01*
X67880000Y-40240000D02*
X67880000Y-39040000D01*
X67880000Y-37840000D02*
X67880000Y-36640000D01*
X67880000Y-35440000D02*
X67880000Y-34240000D01*
X78120000Y-40240000D02*
X78120000Y-39040000D01*
X78120000Y-37840000D02*
X78120000Y-36640000D01*
X78120000Y-35440000D02*
X78120000Y-34240000D01*
X70460000Y-52510000D02*
X70460000Y-49970000D01*
X73000000Y-52510000D02*
X73000000Y-49970000D01*
X75540000Y-52510000D02*
X75540000Y-49970000D01*
G04 #@! TO.C,Q3*
X89540000Y-52510000D02*
X89540000Y-49970000D01*
X87000000Y-52510000D02*
X87000000Y-49970000D01*
X84460000Y-52510000D02*
X84460000Y-49970000D01*
X92120000Y-35440000D02*
X92120000Y-34240000D01*
X92120000Y-37840000D02*
X92120000Y-36640000D01*
X92120000Y-40240000D02*
X92120000Y-39040000D01*
X81880000Y-35440000D02*
X81880000Y-34240000D01*
X81880000Y-37840000D02*
X81880000Y-36640000D01*
X81880000Y-40240000D02*
X81880000Y-39040000D01*
X91480000Y-34080000D02*
X92120000Y-34080000D01*
X89080000Y-34080000D02*
X90280000Y-34080000D01*
X86680000Y-34080000D02*
X87880000Y-34080000D01*
X84279000Y-34080000D02*
X85480000Y-34080000D01*
X81880000Y-34080000D02*
X83080000Y-34080000D01*
X92120000Y-49970000D02*
X92120000Y-40480000D01*
X81880000Y-49970000D02*
X81880000Y-40480000D01*
X81880000Y-40480000D02*
X92120000Y-40480000D01*
X81880000Y-49970000D02*
X92120000Y-49970000D01*
G04 #@! TO.C,Q4*
X95880000Y-49970000D02*
X106120000Y-49970000D01*
X95880000Y-40480000D02*
X106120000Y-40480000D01*
X95880000Y-49970000D02*
X95880000Y-40480000D01*
X106120000Y-49970000D02*
X106120000Y-40480000D01*
X95880000Y-34080000D02*
X97080000Y-34080000D01*
X98279000Y-34080000D02*
X99480000Y-34080000D01*
X100680000Y-34080000D02*
X101880000Y-34080000D01*
X103080000Y-34080000D02*
X104280000Y-34080000D01*
X105480000Y-34080000D02*
X106120000Y-34080000D01*
X95880000Y-40240000D02*
X95880000Y-39040000D01*
X95880000Y-37840000D02*
X95880000Y-36640000D01*
X95880000Y-35440000D02*
X95880000Y-34240000D01*
X106120000Y-40240000D02*
X106120000Y-39040000D01*
X106120000Y-37840000D02*
X106120000Y-36640000D01*
X106120000Y-35440000D02*
X106120000Y-34240000D01*
X98460000Y-52510000D02*
X98460000Y-49970000D01*
X101000000Y-52510000D02*
X101000000Y-49970000D01*
X103540000Y-52510000D02*
X103540000Y-49970000D01*
G04 #@! TO.C,Q5*
X64120000Y-110030000D02*
X53880000Y-110030000D01*
X64120000Y-119520000D02*
X53880000Y-119520000D01*
X64120000Y-110030000D02*
X64120000Y-119520000D01*
X53880000Y-110030000D02*
X53880000Y-119520000D01*
X64120000Y-125920000D02*
X62920000Y-125920000D01*
X61721000Y-125920000D02*
X60520000Y-125920000D01*
X59320000Y-125920000D02*
X58120000Y-125920000D01*
X56920000Y-125920000D02*
X55720000Y-125920000D01*
X54520000Y-125920000D02*
X53880000Y-125920000D01*
X64120000Y-119760000D02*
X64120000Y-120960000D01*
X64120000Y-122160000D02*
X64120000Y-123360000D01*
X64120000Y-124560000D02*
X64120000Y-125760000D01*
X53880000Y-119760000D02*
X53880000Y-120960000D01*
X53880000Y-122160000D02*
X53880000Y-123360000D01*
X53880000Y-124560000D02*
X53880000Y-125760000D01*
X61540000Y-107490000D02*
X61540000Y-110030000D01*
X59000000Y-107490000D02*
X59000000Y-110030000D01*
X56460000Y-107490000D02*
X56460000Y-110030000D01*
G04 #@! TO.C,Q6*
X78120000Y-110030000D02*
X67880000Y-110030000D01*
X78120000Y-119520000D02*
X67880000Y-119520000D01*
X78120000Y-110030000D02*
X78120000Y-119520000D01*
X67880000Y-110030000D02*
X67880000Y-119520000D01*
X78120000Y-125920000D02*
X76920000Y-125920000D01*
X75721000Y-125920000D02*
X74520000Y-125920000D01*
X73320000Y-125920000D02*
X72120000Y-125920000D01*
X70920000Y-125920000D02*
X69720000Y-125920000D01*
X68520000Y-125920000D02*
X67880000Y-125920000D01*
X78120000Y-119760000D02*
X78120000Y-120960000D01*
X78120000Y-122160000D02*
X78120000Y-123360000D01*
X78120000Y-124560000D02*
X78120000Y-125760000D01*
X67880000Y-119760000D02*
X67880000Y-120960000D01*
X67880000Y-122160000D02*
X67880000Y-123360000D01*
X67880000Y-124560000D02*
X67880000Y-125760000D01*
X75540000Y-107490000D02*
X75540000Y-110030000D01*
X73000000Y-107490000D02*
X73000000Y-110030000D01*
X70460000Y-107490000D02*
X70460000Y-110030000D01*
G04 #@! TO.C,Q7*
X84460000Y-107490000D02*
X84460000Y-110030000D01*
X87000000Y-107490000D02*
X87000000Y-110030000D01*
X89540000Y-107490000D02*
X89540000Y-110030000D01*
X81880000Y-124560000D02*
X81880000Y-125760000D01*
X81880000Y-122160000D02*
X81880000Y-123360000D01*
X81880000Y-119760000D02*
X81880000Y-120960000D01*
X92120000Y-124560000D02*
X92120000Y-125760000D01*
X92120000Y-122160000D02*
X92120000Y-123360000D01*
X92120000Y-119760000D02*
X92120000Y-120960000D01*
X82520000Y-125920000D02*
X81880000Y-125920000D01*
X84920000Y-125920000D02*
X83720000Y-125920000D01*
X87320000Y-125920000D02*
X86120000Y-125920000D01*
X89721000Y-125920000D02*
X88520000Y-125920000D01*
X92120000Y-125920000D02*
X90920000Y-125920000D01*
X81880000Y-110030000D02*
X81880000Y-119520000D01*
X92120000Y-110030000D02*
X92120000Y-119520000D01*
X92120000Y-119520000D02*
X81880000Y-119520000D01*
X92120000Y-110030000D02*
X81880000Y-110030000D01*
G04 #@! TO.C,Q8*
X98460000Y-107490000D02*
X98460000Y-110030000D01*
X101000000Y-107490000D02*
X101000000Y-110030000D01*
X103540000Y-107490000D02*
X103540000Y-110030000D01*
X95880000Y-124560000D02*
X95880000Y-125760000D01*
X95880000Y-122160000D02*
X95880000Y-123360000D01*
X95880000Y-119760000D02*
X95880000Y-120960000D01*
X106120000Y-124560000D02*
X106120000Y-125760000D01*
X106120000Y-122160000D02*
X106120000Y-123360000D01*
X106120000Y-119760000D02*
X106120000Y-120960000D01*
X96520000Y-125920000D02*
X95880000Y-125920000D01*
X98920000Y-125920000D02*
X97720000Y-125920000D01*
X101320000Y-125920000D02*
X100120000Y-125920000D01*
X103721000Y-125920000D02*
X102520000Y-125920000D01*
X106120000Y-125920000D02*
X104920000Y-125920000D01*
X95880000Y-110030000D02*
X95880000Y-119520000D01*
X106120000Y-110030000D02*
X106120000Y-119520000D01*
X106120000Y-119520000D02*
X95880000Y-119520000D01*
X106120000Y-110030000D02*
X95880000Y-110030000D01*
G04 #@! TO.C,Q9*
X165100000Y-41930000D02*
X165100000Y-58070000D01*
X186290000Y-41930000D02*
X186290000Y-58070000D01*
X165100000Y-41930000D02*
X186290000Y-41930000D01*
X165100000Y-58070000D02*
X186290000Y-58070000D01*
X162540000Y-44550000D02*
X165100000Y-44550000D01*
X162540000Y-50000000D02*
X165100000Y-50000000D01*
X162540000Y-55450000D02*
X165100000Y-55450000D01*
G04 #@! TO.C,Q10*
X162540000Y-75450000D02*
X165100000Y-75450000D01*
X162540000Y-70000000D02*
X165100000Y-70000000D01*
X162540000Y-64550000D02*
X165100000Y-64550000D01*
X165100000Y-78070000D02*
X186290000Y-78070000D01*
X165100000Y-61930000D02*
X186290000Y-61930000D01*
X186290000Y-61930000D02*
X186290000Y-78070000D01*
X165100000Y-61930000D02*
X165100000Y-78070000D01*
G04 #@! TO.C,Q11*
X165100000Y-81930000D02*
X165100000Y-98070000D01*
X186290000Y-81930000D02*
X186290000Y-98070000D01*
X165100000Y-81930000D02*
X186290000Y-81930000D01*
X165100000Y-98070000D02*
X186290000Y-98070000D01*
X162540000Y-84550000D02*
X165100000Y-84550000D01*
X162540000Y-90000000D02*
X165100000Y-90000000D01*
X162540000Y-95450000D02*
X165100000Y-95450000D01*
G04 #@! TO.C,Q12*
X162540000Y-115450000D02*
X165100000Y-115450000D01*
X162540000Y-110000000D02*
X165100000Y-110000000D01*
X162540000Y-104550000D02*
X165100000Y-104550000D01*
X165100000Y-118070000D02*
X186290000Y-118070000D01*
X165100000Y-101930000D02*
X186290000Y-101930000D01*
X186290000Y-101930000D02*
X186290000Y-118070000D01*
X165100000Y-101930000D02*
X165100000Y-118070000D01*
G04 #@! TO.C,R1*
X79397936Y-66410000D02*
X80602064Y-66410000D01*
X79397936Y-64590000D02*
X80602064Y-64590000D01*
G04 #@! TO.C,R5*
X126261252Y-116290000D02*
X125738748Y-116290000D01*
X126261252Y-117710000D02*
X125738748Y-117710000D01*
G04 #@! TO.C,R8*
X130261252Y-117710000D02*
X129738748Y-117710000D01*
X130261252Y-116290000D02*
X129738748Y-116290000D01*
G04 #@! TO.C,R10*
X95090000Y-79397936D02*
X95090000Y-80602064D01*
X96910000Y-79397936D02*
X96910000Y-80602064D01*
G04 #@! TO.C,R11*
X80602064Y-95410000D02*
X79397936Y-95410000D01*
X80602064Y-93590000D02*
X79397936Y-93590000D01*
G04 #@! TO.C,R18*
X149090000Y-84602064D02*
X149090000Y-83397936D01*
X150910000Y-84602064D02*
X150910000Y-83397936D01*
G04 #@! TO.C,L3*
X120290000Y-52238748D02*
X120290000Y-52761252D01*
X121710000Y-52238748D02*
X121710000Y-52761252D01*
G04 #@! TO.C,C3*
D11*
X125100000Y-121214285D02*
X125128571Y-121242857D01*
X125214285Y-121271428D01*
X125271428Y-121271428D01*
X125357142Y-121242857D01*
X125414285Y-121185714D01*
X125442857Y-121128571D01*
X125471428Y-121014285D01*
X125471428Y-120928571D01*
X125442857Y-120814285D01*
X125414285Y-120757142D01*
X125357142Y-120700000D01*
X125271428Y-120671428D01*
X125214285Y-120671428D01*
X125128571Y-120700000D01*
X125100000Y-120728571D01*
X124900000Y-120671428D02*
X124528571Y-120671428D01*
X124728571Y-120900000D01*
X124642857Y-120900000D01*
X124585714Y-120928571D01*
X124557142Y-120957142D01*
X124528571Y-121014285D01*
X124528571Y-121157142D01*
X124557142Y-121214285D01*
X124585714Y-121242857D01*
X124642857Y-121271428D01*
X124814285Y-121271428D01*
X124871428Y-121242857D01*
X124900000Y-121214285D01*
G04 #@! TO.C,C5*
D12*
X124642857Y-58433333D02*
X124661904Y-58414285D01*
X124680952Y-58357142D01*
X124680952Y-58319047D01*
X124661904Y-58261904D01*
X124623809Y-58223809D01*
X124585714Y-58204761D01*
X124509523Y-58185714D01*
X124452380Y-58185714D01*
X124376190Y-58204761D01*
X124338095Y-58223809D01*
X124300000Y-58261904D01*
X124280952Y-58319047D01*
X124280952Y-58357142D01*
X124300000Y-58414285D01*
X124319047Y-58433333D01*
X124280952Y-58795238D02*
X124280952Y-58604761D01*
X124471428Y-58585714D01*
X124452380Y-58604761D01*
X124433333Y-58642857D01*
X124433333Y-58738095D01*
X124452380Y-58776190D01*
X124471428Y-58795238D01*
X124509523Y-58814285D01*
X124604761Y-58814285D01*
X124642857Y-58795238D01*
X124661904Y-58776190D01*
X124680952Y-58738095D01*
X124680952Y-58642857D01*
X124661904Y-58604761D01*
X124642857Y-58585714D01*
G04 #@! TO.C,C12*
D11*
X133385714Y-56214285D02*
X133414285Y-56242857D01*
X133500000Y-56271428D01*
X133557142Y-56271428D01*
X133642857Y-56242857D01*
X133700000Y-56185714D01*
X133728571Y-56128571D01*
X133757142Y-56014285D01*
X133757142Y-55928571D01*
X133728571Y-55814285D01*
X133700000Y-55757142D01*
X133642857Y-55700000D01*
X133557142Y-55671428D01*
X133500000Y-55671428D01*
X133414285Y-55700000D01*
X133385714Y-55728571D01*
X132814285Y-56271428D02*
X133157142Y-56271428D01*
X132985714Y-56271428D02*
X132985714Y-55671428D01*
X133042857Y-55757142D01*
X133100000Y-55814285D01*
X133157142Y-55842857D01*
X132585714Y-55728571D02*
X132557142Y-55700000D01*
X132500000Y-55671428D01*
X132357142Y-55671428D01*
X132300000Y-55700000D01*
X132271428Y-55728571D01*
X132242857Y-55785714D01*
X132242857Y-55842857D01*
X132271428Y-55928571D01*
X132614285Y-56271428D01*
X132242857Y-56271428D01*
G04 #@! TO.C,C13*
X133214285Y-47614285D02*
X133242857Y-47585714D01*
X133271428Y-47500000D01*
X133271428Y-47442857D01*
X133242857Y-47357142D01*
X133185714Y-47300000D01*
X133128571Y-47271428D01*
X133014285Y-47242857D01*
X132928571Y-47242857D01*
X132814285Y-47271428D01*
X132757142Y-47300000D01*
X132700000Y-47357142D01*
X132671428Y-47442857D01*
X132671428Y-47500000D01*
X132700000Y-47585714D01*
X132728571Y-47614285D01*
X133271428Y-48185714D02*
X133271428Y-47842857D01*
X133271428Y-48014285D02*
X132671428Y-48014285D01*
X132757142Y-47957142D01*
X132814285Y-47900000D01*
X132842857Y-47842857D01*
X132671428Y-48385714D02*
X132671428Y-48757142D01*
X132900000Y-48557142D01*
X132900000Y-48642857D01*
X132928571Y-48700000D01*
X132957142Y-48728571D01*
X133014285Y-48757142D01*
X133157142Y-48757142D01*
X133214285Y-48728571D01*
X133242857Y-48700000D01*
X133271428Y-48642857D01*
X133271428Y-48471428D01*
X133242857Y-48414285D01*
X133214285Y-48385714D01*
G04 #@! TO.C,C15*
D12*
X121257142Y-47642857D02*
X121276190Y-47661904D01*
X121333333Y-47680952D01*
X121371428Y-47680952D01*
X121428571Y-47661904D01*
X121466666Y-47623809D01*
X121485714Y-47585714D01*
X121504761Y-47509523D01*
X121504761Y-47452380D01*
X121485714Y-47376190D01*
X121466666Y-47338095D01*
X121428571Y-47300000D01*
X121371428Y-47280952D01*
X121333333Y-47280952D01*
X121276190Y-47300000D01*
X121257142Y-47319047D01*
X120876190Y-47680952D02*
X121104761Y-47680952D01*
X120990476Y-47680952D02*
X120990476Y-47280952D01*
X121028571Y-47338095D01*
X121066666Y-47376190D01*
X121104761Y-47395238D01*
X120514285Y-47280952D02*
X120704761Y-47280952D01*
X120723809Y-47471428D01*
X120704761Y-47452380D01*
X120666666Y-47433333D01*
X120571428Y-47433333D01*
X120533333Y-47452380D01*
X120514285Y-47471428D01*
X120495238Y-47509523D01*
X120495238Y-47604761D01*
X120514285Y-47642857D01*
X120533333Y-47661904D01*
X120571428Y-47680952D01*
X120666666Y-47680952D01*
X120704761Y-47661904D01*
X120723809Y-47642857D01*
G04 #@! TO.C,C16*
X122507142Y-55642857D02*
X122526190Y-55661904D01*
X122583333Y-55680952D01*
X122621428Y-55680952D01*
X122678571Y-55661904D01*
X122716666Y-55623809D01*
X122735714Y-55585714D01*
X122754761Y-55509523D01*
X122754761Y-55452380D01*
X122735714Y-55376190D01*
X122716666Y-55338095D01*
X122678571Y-55300000D01*
X122621428Y-55280952D01*
X122583333Y-55280952D01*
X122526190Y-55300000D01*
X122507142Y-55319047D01*
X122126190Y-55680952D02*
X122354761Y-55680952D01*
X122240476Y-55680952D02*
X122240476Y-55280952D01*
X122278571Y-55338095D01*
X122316666Y-55376190D01*
X122354761Y-55395238D01*
X121783333Y-55280952D02*
X121859523Y-55280952D01*
X121897619Y-55300000D01*
X121916666Y-55319047D01*
X121954761Y-55376190D01*
X121973809Y-55452380D01*
X121973809Y-55604761D01*
X121954761Y-55642857D01*
X121935714Y-55661904D01*
X121897619Y-55680952D01*
X121821428Y-55680952D01*
X121783333Y-55661904D01*
X121764285Y-55642857D01*
X121745238Y-55604761D01*
X121745238Y-55509523D01*
X121764285Y-55471428D01*
X121783333Y-55452380D01*
X121821428Y-55433333D01*
X121897619Y-55433333D01*
X121935714Y-55452380D01*
X121954761Y-55471428D01*
X121973809Y-55509523D01*
G04 #@! TO.C,C17*
X122257142Y-58404857D02*
X122276190Y-58423904D01*
X122333333Y-58442952D01*
X122371428Y-58442952D01*
X122428571Y-58423904D01*
X122466666Y-58385809D01*
X122485714Y-58347714D01*
X122504761Y-58271523D01*
X122504761Y-58214380D01*
X122485714Y-58138190D01*
X122466666Y-58100095D01*
X122428571Y-58062000D01*
X122371428Y-58042952D01*
X122333333Y-58042952D01*
X122276190Y-58062000D01*
X122257142Y-58081047D01*
X121876190Y-58442952D02*
X122104761Y-58442952D01*
X121990476Y-58442952D02*
X121990476Y-58042952D01*
X122028571Y-58100095D01*
X122066666Y-58138190D01*
X122104761Y-58157238D01*
X121742857Y-58042952D02*
X121476190Y-58042952D01*
X121647619Y-58442952D01*
G04 #@! TO.C,C30*
X135892857Y-56742857D02*
X135911904Y-56723809D01*
X135930952Y-56666666D01*
X135930952Y-56628571D01*
X135911904Y-56571428D01*
X135873809Y-56533333D01*
X135835714Y-56514285D01*
X135759523Y-56495238D01*
X135702380Y-56495238D01*
X135626190Y-56514285D01*
X135588095Y-56533333D01*
X135550000Y-56571428D01*
X135530952Y-56628571D01*
X135530952Y-56666666D01*
X135550000Y-56723809D01*
X135569047Y-56742857D01*
X135530952Y-56876190D02*
X135530952Y-57123809D01*
X135683333Y-56990476D01*
X135683333Y-57047619D01*
X135702380Y-57085714D01*
X135721428Y-57104761D01*
X135759523Y-57123809D01*
X135854761Y-57123809D01*
X135892857Y-57104761D01*
X135911904Y-57085714D01*
X135930952Y-57047619D01*
X135930952Y-56933333D01*
X135911904Y-56895238D01*
X135892857Y-56876190D01*
X135530952Y-57371428D02*
X135530952Y-57409523D01*
X135550000Y-57447619D01*
X135569047Y-57466666D01*
X135607142Y-57485714D01*
X135683333Y-57504761D01*
X135778571Y-57504761D01*
X135854761Y-57485714D01*
X135892857Y-57466666D01*
X135911904Y-57447619D01*
X135930952Y-57409523D01*
X135930952Y-57371428D01*
X135911904Y-57333333D01*
X135892857Y-57314285D01*
X135854761Y-57295238D01*
X135778571Y-57276190D01*
X135683333Y-57276190D01*
X135607142Y-57295238D01*
X135569047Y-57314285D01*
X135550000Y-57333333D01*
X135530952Y-57371428D01*
G04 #@! TO.C,C31*
X134257142Y-45392857D02*
X134276190Y-45411904D01*
X134333333Y-45430952D01*
X134371428Y-45430952D01*
X134428571Y-45411904D01*
X134466666Y-45373809D01*
X134485714Y-45335714D01*
X134504761Y-45259523D01*
X134504761Y-45202380D01*
X134485714Y-45126190D01*
X134466666Y-45088095D01*
X134428571Y-45050000D01*
X134371428Y-45030952D01*
X134333333Y-45030952D01*
X134276190Y-45050000D01*
X134257142Y-45069047D01*
X134123809Y-45030952D02*
X133876190Y-45030952D01*
X134009523Y-45183333D01*
X133952380Y-45183333D01*
X133914285Y-45202380D01*
X133895238Y-45221428D01*
X133876190Y-45259523D01*
X133876190Y-45354761D01*
X133895238Y-45392857D01*
X133914285Y-45411904D01*
X133952380Y-45430952D01*
X134066666Y-45430952D01*
X134104761Y-45411904D01*
X134123809Y-45392857D01*
X133495238Y-45430952D02*
X133723809Y-45430952D01*
X133609523Y-45430952D02*
X133609523Y-45030952D01*
X133647619Y-45088095D01*
X133685714Y-45126190D01*
X133723809Y-45145238D01*
G04 #@! TO.C,C32*
X124257142Y-50380857D02*
X124276190Y-50399904D01*
X124333333Y-50418952D01*
X124371428Y-50418952D01*
X124428571Y-50399904D01*
X124466666Y-50361809D01*
X124485714Y-50323714D01*
X124504761Y-50247523D01*
X124504761Y-50190380D01*
X124485714Y-50114190D01*
X124466666Y-50076095D01*
X124428571Y-50038000D01*
X124371428Y-50018952D01*
X124333333Y-50018952D01*
X124276190Y-50038000D01*
X124257142Y-50057047D01*
X124123809Y-50018952D02*
X123876190Y-50018952D01*
X124009523Y-50171333D01*
X123952380Y-50171333D01*
X123914285Y-50190380D01*
X123895238Y-50209428D01*
X123876190Y-50247523D01*
X123876190Y-50342761D01*
X123895238Y-50380857D01*
X123914285Y-50399904D01*
X123952380Y-50418952D01*
X124066666Y-50418952D01*
X124104761Y-50399904D01*
X124123809Y-50380857D01*
X123723809Y-50057047D02*
X123704761Y-50038000D01*
X123666666Y-50018952D01*
X123571428Y-50018952D01*
X123533333Y-50038000D01*
X123514285Y-50057047D01*
X123495238Y-50095142D01*
X123495238Y-50133238D01*
X123514285Y-50190380D01*
X123742857Y-50418952D01*
X123495238Y-50418952D01*
G04 #@! TO.C,C33*
X121257142Y-46642857D02*
X121276190Y-46661904D01*
X121333333Y-46680952D01*
X121371428Y-46680952D01*
X121428571Y-46661904D01*
X121466666Y-46623809D01*
X121485714Y-46585714D01*
X121504761Y-46509523D01*
X121504761Y-46452380D01*
X121485714Y-46376190D01*
X121466666Y-46338095D01*
X121428571Y-46300000D01*
X121371428Y-46280952D01*
X121333333Y-46280952D01*
X121276190Y-46300000D01*
X121257142Y-46319047D01*
X121123809Y-46280952D02*
X120876190Y-46280952D01*
X121009523Y-46433333D01*
X120952380Y-46433333D01*
X120914285Y-46452380D01*
X120895238Y-46471428D01*
X120876190Y-46509523D01*
X120876190Y-46604761D01*
X120895238Y-46642857D01*
X120914285Y-46661904D01*
X120952380Y-46680952D01*
X121066666Y-46680952D01*
X121104761Y-46661904D01*
X121123809Y-46642857D01*
X120742857Y-46280952D02*
X120495238Y-46280952D01*
X120628571Y-46433333D01*
X120571428Y-46433333D01*
X120533333Y-46452380D01*
X120514285Y-46471428D01*
X120495238Y-46509523D01*
X120495238Y-46604761D01*
X120514285Y-46642857D01*
X120533333Y-46661904D01*
X120571428Y-46680952D01*
X120685714Y-46680952D01*
X120723809Y-46661904D01*
X120742857Y-46642857D01*
G04 #@! TO.C,C51*
X125642857Y-58242857D02*
X125661904Y-58223809D01*
X125680952Y-58166666D01*
X125680952Y-58128571D01*
X125661904Y-58071428D01*
X125623809Y-58033333D01*
X125585714Y-58014285D01*
X125509523Y-57995238D01*
X125452380Y-57995238D01*
X125376190Y-58014285D01*
X125338095Y-58033333D01*
X125300000Y-58071428D01*
X125280952Y-58128571D01*
X125280952Y-58166666D01*
X125300000Y-58223809D01*
X125319047Y-58242857D01*
X125280952Y-58604761D02*
X125280952Y-58414285D01*
X125471428Y-58395238D01*
X125452380Y-58414285D01*
X125433333Y-58452380D01*
X125433333Y-58547619D01*
X125452380Y-58585714D01*
X125471428Y-58604761D01*
X125509523Y-58623809D01*
X125604761Y-58623809D01*
X125642857Y-58604761D01*
X125661904Y-58585714D01*
X125680952Y-58547619D01*
X125680952Y-58452380D01*
X125661904Y-58414285D01*
X125642857Y-58395238D01*
X125680952Y-59004761D02*
X125680952Y-58776190D01*
X125680952Y-58890476D02*
X125280952Y-58890476D01*
X125338095Y-58852380D01*
X125376190Y-58814285D01*
X125395238Y-58776190D01*
G04 #@! TO.C,C61*
X126642857Y-58242857D02*
X126661904Y-58223809D01*
X126680952Y-58166666D01*
X126680952Y-58128571D01*
X126661904Y-58071428D01*
X126623809Y-58033333D01*
X126585714Y-58014285D01*
X126509523Y-57995238D01*
X126452380Y-57995238D01*
X126376190Y-58014285D01*
X126338095Y-58033333D01*
X126300000Y-58071428D01*
X126280952Y-58128571D01*
X126280952Y-58166666D01*
X126300000Y-58223809D01*
X126319047Y-58242857D01*
X126280952Y-58585714D02*
X126280952Y-58509523D01*
X126300000Y-58471428D01*
X126319047Y-58452380D01*
X126376190Y-58414285D01*
X126452380Y-58395238D01*
X126604761Y-58395238D01*
X126642857Y-58414285D01*
X126661904Y-58433333D01*
X126680952Y-58471428D01*
X126680952Y-58547619D01*
X126661904Y-58585714D01*
X126642857Y-58604761D01*
X126604761Y-58623809D01*
X126509523Y-58623809D01*
X126471428Y-58604761D01*
X126452380Y-58585714D01*
X126433333Y-58547619D01*
X126433333Y-58471428D01*
X126452380Y-58433333D01*
X126471428Y-58414285D01*
X126509523Y-58395238D01*
X126680952Y-59004761D02*
X126680952Y-58776190D01*
X126680952Y-58890476D02*
X126280952Y-58890476D01*
X126338095Y-58852380D01*
X126376190Y-58814285D01*
X126395238Y-58776190D01*
G04 #@! TO.C,D1*
D13*
X74452380Y-62761904D02*
X73452380Y-62761904D01*
X73452380Y-63000000D01*
X73500000Y-63142857D01*
X73595238Y-63238095D01*
X73690476Y-63285714D01*
X73880952Y-63333333D01*
X74023809Y-63333333D01*
X74214285Y-63285714D01*
X74309523Y-63238095D01*
X74404761Y-63142857D01*
X74452380Y-63000000D01*
X74452380Y-62761904D01*
X74452380Y-64285714D02*
X74452380Y-63714285D01*
X74452380Y-64000000D02*
X73452380Y-64000000D01*
X73595238Y-63904761D01*
X73690476Y-63809523D01*
X73738095Y-63714285D01*
G04 #@! TO.C,D7*
X86452380Y-95761904D02*
X85452380Y-95761904D01*
X85452380Y-96000000D01*
X85500000Y-96142857D01*
X85595238Y-96238095D01*
X85690476Y-96285714D01*
X85880952Y-96333333D01*
X86023809Y-96333333D01*
X86214285Y-96285714D01*
X86309523Y-96238095D01*
X86404761Y-96142857D01*
X86452380Y-96000000D01*
X86452380Y-95761904D01*
X85452380Y-96666666D02*
X85452380Y-97333333D01*
X86452380Y-96904761D01*
G04 #@! TO.C,Q1*
X59095238Y-33627619D02*
X59190476Y-33580000D01*
X59285714Y-33484761D01*
X59428571Y-33341904D01*
X59523809Y-33294285D01*
X59619047Y-33294285D01*
X59571428Y-33532380D02*
X59666666Y-33484761D01*
X59761904Y-33389523D01*
X59809523Y-33199047D01*
X59809523Y-32865714D01*
X59761904Y-32675238D01*
X59666666Y-32580000D01*
X59571428Y-32532380D01*
X59380952Y-32532380D01*
X59285714Y-32580000D01*
X59190476Y-32675238D01*
X59142857Y-32865714D01*
X59142857Y-33199047D01*
X59190476Y-33389523D01*
X59285714Y-33484761D01*
X59380952Y-33532380D01*
X59571428Y-33532380D01*
X58190476Y-33532380D02*
X58761904Y-33532380D01*
X58476190Y-33532380D02*
X58476190Y-32532380D01*
X58571428Y-32675238D01*
X58666666Y-32770476D01*
X58761904Y-32818095D01*
G04 #@! TO.C,Q2*
X73095238Y-33627619D02*
X73190476Y-33580000D01*
X73285714Y-33484761D01*
X73428571Y-33341904D01*
X73523809Y-33294285D01*
X73619047Y-33294285D01*
X73571428Y-33532380D02*
X73666666Y-33484761D01*
X73761904Y-33389523D01*
X73809523Y-33199047D01*
X73809523Y-32865714D01*
X73761904Y-32675238D01*
X73666666Y-32580000D01*
X73571428Y-32532380D01*
X73380952Y-32532380D01*
X73285714Y-32580000D01*
X73190476Y-32675238D01*
X73142857Y-32865714D01*
X73142857Y-33199047D01*
X73190476Y-33389523D01*
X73285714Y-33484761D01*
X73380952Y-33532380D01*
X73571428Y-33532380D01*
X72761904Y-32627619D02*
X72714285Y-32580000D01*
X72619047Y-32532380D01*
X72380952Y-32532380D01*
X72285714Y-32580000D01*
X72238095Y-32627619D01*
X72190476Y-32722857D01*
X72190476Y-32818095D01*
X72238095Y-32960952D01*
X72809523Y-33532380D01*
X72190476Y-33532380D01*
G04 #@! TO.C,Q3*
X87095238Y-33627619D02*
X87190476Y-33580000D01*
X87285714Y-33484761D01*
X87428571Y-33341904D01*
X87523809Y-33294285D01*
X87619047Y-33294285D01*
X87571428Y-33532380D02*
X87666666Y-33484761D01*
X87761904Y-33389523D01*
X87809523Y-33199047D01*
X87809523Y-32865714D01*
X87761904Y-32675238D01*
X87666666Y-32580000D01*
X87571428Y-32532380D01*
X87380952Y-32532380D01*
X87285714Y-32580000D01*
X87190476Y-32675238D01*
X87142857Y-32865714D01*
X87142857Y-33199047D01*
X87190476Y-33389523D01*
X87285714Y-33484761D01*
X87380952Y-33532380D01*
X87571428Y-33532380D01*
X86809523Y-32532380D02*
X86190476Y-32532380D01*
X86523809Y-32913333D01*
X86380952Y-32913333D01*
X86285714Y-32960952D01*
X86238095Y-33008571D01*
X86190476Y-33103809D01*
X86190476Y-33341904D01*
X86238095Y-33437142D01*
X86285714Y-33484761D01*
X86380952Y-33532380D01*
X86666666Y-33532380D01*
X86761904Y-33484761D01*
X86809523Y-33437142D01*
G04 #@! TO.C,Q4*
X101095238Y-33627619D02*
X101190476Y-33580000D01*
X101285714Y-33484761D01*
X101428571Y-33341904D01*
X101523809Y-33294285D01*
X101619047Y-33294285D01*
X101571428Y-33532380D02*
X101666666Y-33484761D01*
X101761904Y-33389523D01*
X101809523Y-33199047D01*
X101809523Y-32865714D01*
X101761904Y-32675238D01*
X101666666Y-32580000D01*
X101571428Y-32532380D01*
X101380952Y-32532380D01*
X101285714Y-32580000D01*
X101190476Y-32675238D01*
X101142857Y-32865714D01*
X101142857Y-33199047D01*
X101190476Y-33389523D01*
X101285714Y-33484761D01*
X101380952Y-33532380D01*
X101571428Y-33532380D01*
X100285714Y-32865714D02*
X100285714Y-33532380D01*
X100523809Y-32484761D02*
X100761904Y-33199047D01*
X100142857Y-33199047D01*
G04 #@! TO.C,Q5*
X59095238Y-127467619D02*
X59190476Y-127420000D01*
X59285714Y-127324761D01*
X59428571Y-127181904D01*
X59523809Y-127134285D01*
X59619047Y-127134285D01*
X59571428Y-127372380D02*
X59666666Y-127324761D01*
X59761904Y-127229523D01*
X59809523Y-127039047D01*
X59809523Y-126705714D01*
X59761904Y-126515238D01*
X59666666Y-126420000D01*
X59571428Y-126372380D01*
X59380952Y-126372380D01*
X59285714Y-126420000D01*
X59190476Y-126515238D01*
X59142857Y-126705714D01*
X59142857Y-127039047D01*
X59190476Y-127229523D01*
X59285714Y-127324761D01*
X59380952Y-127372380D01*
X59571428Y-127372380D01*
X58238095Y-126372380D02*
X58714285Y-126372380D01*
X58761904Y-126848571D01*
X58714285Y-126800952D01*
X58619047Y-126753333D01*
X58380952Y-126753333D01*
X58285714Y-126800952D01*
X58238095Y-126848571D01*
X58190476Y-126943809D01*
X58190476Y-127181904D01*
X58238095Y-127277142D01*
X58285714Y-127324761D01*
X58380952Y-127372380D01*
X58619047Y-127372380D01*
X58714285Y-127324761D01*
X58761904Y-127277142D01*
G04 #@! TO.C,Q6*
X73095238Y-127467619D02*
X73190476Y-127420000D01*
X73285714Y-127324761D01*
X73428571Y-127181904D01*
X73523809Y-127134285D01*
X73619047Y-127134285D01*
X73571428Y-127372380D02*
X73666666Y-127324761D01*
X73761904Y-127229523D01*
X73809523Y-127039047D01*
X73809523Y-126705714D01*
X73761904Y-126515238D01*
X73666666Y-126420000D01*
X73571428Y-126372380D01*
X73380952Y-126372380D01*
X73285714Y-126420000D01*
X73190476Y-126515238D01*
X73142857Y-126705714D01*
X73142857Y-127039047D01*
X73190476Y-127229523D01*
X73285714Y-127324761D01*
X73380952Y-127372380D01*
X73571428Y-127372380D01*
X72285714Y-126372380D02*
X72476190Y-126372380D01*
X72571428Y-126420000D01*
X72619047Y-126467619D01*
X72714285Y-126610476D01*
X72761904Y-126800952D01*
X72761904Y-127181904D01*
X72714285Y-127277142D01*
X72666666Y-127324761D01*
X72571428Y-127372380D01*
X72380952Y-127372380D01*
X72285714Y-127324761D01*
X72238095Y-127277142D01*
X72190476Y-127181904D01*
X72190476Y-126943809D01*
X72238095Y-126848571D01*
X72285714Y-126800952D01*
X72380952Y-126753333D01*
X72571428Y-126753333D01*
X72666666Y-126800952D01*
X72714285Y-126848571D01*
X72761904Y-126943809D01*
G04 #@! TO.C,Q7*
X87095238Y-127467619D02*
X87190476Y-127420000D01*
X87285714Y-127324761D01*
X87428571Y-127181904D01*
X87523809Y-127134285D01*
X87619047Y-127134285D01*
X87571428Y-127372380D02*
X87666666Y-127324761D01*
X87761904Y-127229523D01*
X87809523Y-127039047D01*
X87809523Y-126705714D01*
X87761904Y-126515238D01*
X87666666Y-126420000D01*
X87571428Y-126372380D01*
X87380952Y-126372380D01*
X87285714Y-126420000D01*
X87190476Y-126515238D01*
X87142857Y-126705714D01*
X87142857Y-127039047D01*
X87190476Y-127229523D01*
X87285714Y-127324761D01*
X87380952Y-127372380D01*
X87571428Y-127372380D01*
X86809523Y-126372380D02*
X86142857Y-126372380D01*
X86571428Y-127372380D01*
G04 #@! TO.C,Q8*
X101095238Y-127467619D02*
X101190476Y-127420000D01*
X101285714Y-127324761D01*
X101428571Y-127181904D01*
X101523809Y-127134285D01*
X101619047Y-127134285D01*
X101571428Y-127372380D02*
X101666666Y-127324761D01*
X101761904Y-127229523D01*
X101809523Y-127039047D01*
X101809523Y-126705714D01*
X101761904Y-126515238D01*
X101666666Y-126420000D01*
X101571428Y-126372380D01*
X101380952Y-126372380D01*
X101285714Y-126420000D01*
X101190476Y-126515238D01*
X101142857Y-126705714D01*
X101142857Y-127039047D01*
X101190476Y-127229523D01*
X101285714Y-127324761D01*
X101380952Y-127372380D01*
X101571428Y-127372380D01*
X100571428Y-126800952D02*
X100666666Y-126753333D01*
X100714285Y-126705714D01*
X100761904Y-126610476D01*
X100761904Y-126562857D01*
X100714285Y-126467619D01*
X100666666Y-126420000D01*
X100571428Y-126372380D01*
X100380952Y-126372380D01*
X100285714Y-126420000D01*
X100238095Y-126467619D01*
X100190476Y-126562857D01*
X100190476Y-126610476D01*
X100238095Y-126705714D01*
X100285714Y-126753333D01*
X100380952Y-126800952D01*
X100571428Y-126800952D01*
X100666666Y-126848571D01*
X100714285Y-126896190D01*
X100761904Y-126991428D01*
X100761904Y-127181904D01*
X100714285Y-127277142D01*
X100666666Y-127324761D01*
X100571428Y-127372380D01*
X100380952Y-127372380D01*
X100285714Y-127324761D01*
X100238095Y-127277142D01*
X100190476Y-127181904D01*
X100190476Y-126991428D01*
X100238095Y-126896190D01*
X100285714Y-126848571D01*
X100380952Y-126800952D01*
G04 #@! TO.C,Q9*
X187837619Y-49904761D02*
X187790000Y-49809523D01*
X187694761Y-49714285D01*
X187551904Y-49571428D01*
X187504285Y-49476190D01*
X187504285Y-49380952D01*
X187742380Y-49428571D02*
X187694761Y-49333333D01*
X187599523Y-49238095D01*
X187409047Y-49190476D01*
X187075714Y-49190476D01*
X186885238Y-49238095D01*
X186790000Y-49333333D01*
X186742380Y-49428571D01*
X186742380Y-49619047D01*
X186790000Y-49714285D01*
X186885238Y-49809523D01*
X187075714Y-49857142D01*
X187409047Y-49857142D01*
X187599523Y-49809523D01*
X187694761Y-49714285D01*
X187742380Y-49619047D01*
X187742380Y-49428571D01*
X187742380Y-50333333D02*
X187742380Y-50523809D01*
X187694761Y-50619047D01*
X187647142Y-50666666D01*
X187504285Y-50761904D01*
X187313809Y-50809523D01*
X186932857Y-50809523D01*
X186837619Y-50761904D01*
X186790000Y-50714285D01*
X186742380Y-50619047D01*
X186742380Y-50428571D01*
X186790000Y-50333333D01*
X186837619Y-50285714D01*
X186932857Y-50238095D01*
X187170952Y-50238095D01*
X187266190Y-50285714D01*
X187313809Y-50333333D01*
X187361428Y-50428571D01*
X187361428Y-50619047D01*
X187313809Y-50714285D01*
X187266190Y-50761904D01*
X187170952Y-50809523D01*
G04 #@! TO.C,Q10*
X187837619Y-69428571D02*
X187790000Y-69333333D01*
X187694761Y-69238095D01*
X187551904Y-69095238D01*
X187504285Y-69000000D01*
X187504285Y-68904761D01*
X187742380Y-68952380D02*
X187694761Y-68857142D01*
X187599523Y-68761904D01*
X187409047Y-68714285D01*
X187075714Y-68714285D01*
X186885238Y-68761904D01*
X186790000Y-68857142D01*
X186742380Y-68952380D01*
X186742380Y-69142857D01*
X186790000Y-69238095D01*
X186885238Y-69333333D01*
X187075714Y-69380952D01*
X187409047Y-69380952D01*
X187599523Y-69333333D01*
X187694761Y-69238095D01*
X187742380Y-69142857D01*
X187742380Y-68952380D01*
X187742380Y-70333333D02*
X187742380Y-69761904D01*
X187742380Y-70047619D02*
X186742380Y-70047619D01*
X186885238Y-69952380D01*
X186980476Y-69857142D01*
X187028095Y-69761904D01*
X186742380Y-70952380D02*
X186742380Y-71047619D01*
X186790000Y-71142857D01*
X186837619Y-71190476D01*
X186932857Y-71238095D01*
X187123333Y-71285714D01*
X187361428Y-71285714D01*
X187551904Y-71238095D01*
X187647142Y-71190476D01*
X187694761Y-71142857D01*
X187742380Y-71047619D01*
X187742380Y-70952380D01*
X187694761Y-70857142D01*
X187647142Y-70809523D01*
X187551904Y-70761904D01*
X187361428Y-70714285D01*
X187123333Y-70714285D01*
X186932857Y-70761904D01*
X186837619Y-70809523D01*
X186790000Y-70857142D01*
X186742380Y-70952380D01*
G04 #@! TO.C,Q11*
X187837619Y-89428571D02*
X187790000Y-89333333D01*
X187694761Y-89238095D01*
X187551904Y-89095238D01*
X187504285Y-89000000D01*
X187504285Y-88904761D01*
X187742380Y-88952380D02*
X187694761Y-88857142D01*
X187599523Y-88761904D01*
X187409047Y-88714285D01*
X187075714Y-88714285D01*
X186885238Y-88761904D01*
X186790000Y-88857142D01*
X186742380Y-88952380D01*
X186742380Y-89142857D01*
X186790000Y-89238095D01*
X186885238Y-89333333D01*
X187075714Y-89380952D01*
X187409047Y-89380952D01*
X187599523Y-89333333D01*
X187694761Y-89238095D01*
X187742380Y-89142857D01*
X187742380Y-88952380D01*
X187742380Y-90333333D02*
X187742380Y-89761904D01*
X187742380Y-90047619D02*
X186742380Y-90047619D01*
X186885238Y-89952380D01*
X186980476Y-89857142D01*
X187028095Y-89761904D01*
X187742380Y-91285714D02*
X187742380Y-90714285D01*
X187742380Y-91000000D02*
X186742380Y-91000000D01*
X186885238Y-90904761D01*
X186980476Y-90809523D01*
X187028095Y-90714285D01*
G04 #@! TO.C,Q12*
X187837619Y-109428571D02*
X187790000Y-109333333D01*
X187694761Y-109238095D01*
X187551904Y-109095238D01*
X187504285Y-109000000D01*
X187504285Y-108904761D01*
X187742380Y-108952380D02*
X187694761Y-108857142D01*
X187599523Y-108761904D01*
X187409047Y-108714285D01*
X187075714Y-108714285D01*
X186885238Y-108761904D01*
X186790000Y-108857142D01*
X186742380Y-108952380D01*
X186742380Y-109142857D01*
X186790000Y-109238095D01*
X186885238Y-109333333D01*
X187075714Y-109380952D01*
X187409047Y-109380952D01*
X187599523Y-109333333D01*
X187694761Y-109238095D01*
X187742380Y-109142857D01*
X187742380Y-108952380D01*
X187742380Y-110333333D02*
X187742380Y-109761904D01*
X187742380Y-110047619D02*
X186742380Y-110047619D01*
X186885238Y-109952380D01*
X186980476Y-109857142D01*
X187028095Y-109761904D01*
X186837619Y-110714285D02*
X186790000Y-110761904D01*
X186742380Y-110857142D01*
X186742380Y-111095238D01*
X186790000Y-111190476D01*
X186837619Y-111238095D01*
X186932857Y-111285714D01*
X187028095Y-111285714D01*
X187170952Y-111238095D01*
X187742380Y-110666666D01*
X187742380Y-111285714D01*
G04 #@! TO.C,R1*
X80166666Y-67772380D02*
X80500000Y-67296190D01*
X80738095Y-67772380D02*
X80738095Y-66772380D01*
X80357142Y-66772380D01*
X80261904Y-66820000D01*
X80214285Y-66867619D01*
X80166666Y-66962857D01*
X80166666Y-67105714D01*
X80214285Y-67200952D01*
X80261904Y-67248571D01*
X80357142Y-67296190D01*
X80738095Y-67296190D01*
X79214285Y-67772380D02*
X79785714Y-67772380D01*
X79500000Y-67772380D02*
X79500000Y-66772380D01*
X79595238Y-66915238D01*
X79690476Y-67010476D01*
X79785714Y-67058095D01*
G04 #@! TO.C,R5*
X126166666Y-115802380D02*
X126500000Y-115326190D01*
X126738095Y-115802380D02*
X126738095Y-114802380D01*
X126357142Y-114802380D01*
X126261904Y-114850000D01*
X126214285Y-114897619D01*
X126166666Y-114992857D01*
X126166666Y-115135714D01*
X126214285Y-115230952D01*
X126261904Y-115278571D01*
X126357142Y-115326190D01*
X126738095Y-115326190D01*
X125261904Y-114802380D02*
X125738095Y-114802380D01*
X125785714Y-115278571D01*
X125738095Y-115230952D01*
X125642857Y-115183333D01*
X125404761Y-115183333D01*
X125309523Y-115230952D01*
X125261904Y-115278571D01*
X125214285Y-115373809D01*
X125214285Y-115611904D01*
X125261904Y-115707142D01*
X125309523Y-115754761D01*
X125404761Y-115802380D01*
X125642857Y-115802380D01*
X125738095Y-115754761D01*
X125785714Y-115707142D01*
G04 #@! TO.C,R6*
D12*
X121066666Y-40418952D02*
X121200000Y-40228476D01*
X121295238Y-40418952D02*
X121295238Y-40018952D01*
X121142857Y-40018952D01*
X121104761Y-40038000D01*
X121085714Y-40057047D01*
X121066666Y-40095142D01*
X121066666Y-40152285D01*
X121085714Y-40190380D01*
X121104761Y-40209428D01*
X121142857Y-40228476D01*
X121295238Y-40228476D01*
X120723809Y-40018952D02*
X120800000Y-40018952D01*
X120838095Y-40038000D01*
X120857142Y-40057047D01*
X120895238Y-40114190D01*
X120914285Y-40190380D01*
X120914285Y-40342761D01*
X120895238Y-40380857D01*
X120876190Y-40399904D01*
X120838095Y-40418952D01*
X120761904Y-40418952D01*
X120723809Y-40399904D01*
X120704761Y-40380857D01*
X120685714Y-40342761D01*
X120685714Y-40247523D01*
X120704761Y-40209428D01*
X120723809Y-40190380D01*
X120761904Y-40171333D01*
X120838095Y-40171333D01*
X120876190Y-40190380D01*
X120895238Y-40209428D01*
X120914285Y-40247523D01*
G04 #@! TO.C,R8*
D13*
X130166666Y-115802380D02*
X130500000Y-115326190D01*
X130738095Y-115802380D02*
X130738095Y-114802380D01*
X130357142Y-114802380D01*
X130261904Y-114850000D01*
X130214285Y-114897619D01*
X130166666Y-114992857D01*
X130166666Y-115135714D01*
X130214285Y-115230952D01*
X130261904Y-115278571D01*
X130357142Y-115326190D01*
X130738095Y-115326190D01*
X129595238Y-115230952D02*
X129690476Y-115183333D01*
X129738095Y-115135714D01*
X129785714Y-115040476D01*
X129785714Y-114992857D01*
X129738095Y-114897619D01*
X129690476Y-114850000D01*
X129595238Y-114802380D01*
X129404761Y-114802380D01*
X129309523Y-114850000D01*
X129261904Y-114897619D01*
X129214285Y-114992857D01*
X129214285Y-115040476D01*
X129261904Y-115135714D01*
X129309523Y-115183333D01*
X129404761Y-115230952D01*
X129595238Y-115230952D01*
X129690476Y-115278571D01*
X129738095Y-115326190D01*
X129785714Y-115421428D01*
X129785714Y-115611904D01*
X129738095Y-115707142D01*
X129690476Y-115754761D01*
X129595238Y-115802380D01*
X129404761Y-115802380D01*
X129309523Y-115754761D01*
X129261904Y-115707142D01*
X129214285Y-115611904D01*
X129214285Y-115421428D01*
X129261904Y-115326190D01*
X129309523Y-115278571D01*
X129404761Y-115230952D01*
G04 #@! TO.C,R10*
X94632380Y-79357142D02*
X94156190Y-79023809D01*
X94632380Y-78785714D02*
X93632380Y-78785714D01*
X93632380Y-79166666D01*
X93680000Y-79261904D01*
X93727619Y-79309523D01*
X93822857Y-79357142D01*
X93965714Y-79357142D01*
X94060952Y-79309523D01*
X94108571Y-79261904D01*
X94156190Y-79166666D01*
X94156190Y-78785714D01*
X94632380Y-80309523D02*
X94632380Y-79738095D01*
X94632380Y-80023809D02*
X93632380Y-80023809D01*
X93775238Y-79928571D01*
X93870476Y-79833333D01*
X93918095Y-79738095D01*
X93632380Y-80928571D02*
X93632380Y-81023809D01*
X93680000Y-81119047D01*
X93727619Y-81166666D01*
X93822857Y-81214285D01*
X94013333Y-81261904D01*
X94251428Y-81261904D01*
X94441904Y-81214285D01*
X94537142Y-81166666D01*
X94584761Y-81119047D01*
X94632380Y-81023809D01*
X94632380Y-80928571D01*
X94584761Y-80833333D01*
X94537142Y-80785714D01*
X94441904Y-80738095D01*
X94251428Y-80690476D01*
X94013333Y-80690476D01*
X93822857Y-80738095D01*
X93727619Y-80785714D01*
X93680000Y-80833333D01*
X93632380Y-80928571D01*
G04 #@! TO.C,R11*
X80642857Y-93132380D02*
X80976190Y-92656190D01*
X81214285Y-93132380D02*
X81214285Y-92132380D01*
X80833333Y-92132380D01*
X80738095Y-92180000D01*
X80690476Y-92227619D01*
X80642857Y-92322857D01*
X80642857Y-92465714D01*
X80690476Y-92560952D01*
X80738095Y-92608571D01*
X80833333Y-92656190D01*
X81214285Y-92656190D01*
X79690476Y-93132380D02*
X80261904Y-93132380D01*
X79976190Y-93132380D02*
X79976190Y-92132380D01*
X80071428Y-92275238D01*
X80166666Y-92370476D01*
X80261904Y-92418095D01*
X78738095Y-93132380D02*
X79309523Y-93132380D01*
X79023809Y-93132380D02*
X79023809Y-92132380D01*
X79119047Y-92275238D01*
X79214285Y-92370476D01*
X79309523Y-92418095D01*
G04 #@! TO.C,R16*
D12*
X124680952Y-44992857D02*
X124490476Y-44859523D01*
X124680952Y-44764285D02*
X124280952Y-44764285D01*
X124280952Y-44916666D01*
X124300000Y-44954761D01*
X124319047Y-44973809D01*
X124357142Y-44992857D01*
X124414285Y-44992857D01*
X124452380Y-44973809D01*
X124471428Y-44954761D01*
X124490476Y-44916666D01*
X124490476Y-44764285D01*
X124680952Y-45373809D02*
X124680952Y-45145238D01*
X124680952Y-45259523D02*
X124280952Y-45259523D01*
X124338095Y-45221428D01*
X124376190Y-45183333D01*
X124395238Y-45145238D01*
X124280952Y-45716666D02*
X124280952Y-45640476D01*
X124300000Y-45602380D01*
X124319047Y-45583333D01*
X124376190Y-45545238D01*
X124452380Y-45526190D01*
X124604761Y-45526190D01*
X124642857Y-45545238D01*
X124661904Y-45564285D01*
X124680952Y-45602380D01*
X124680952Y-45678571D01*
X124661904Y-45716666D01*
X124642857Y-45735714D01*
X124604761Y-45754761D01*
X124509523Y-45754761D01*
X124471428Y-45735714D01*
X124452380Y-45716666D01*
X124433333Y-45678571D01*
X124433333Y-45602380D01*
X124452380Y-45564285D01*
X124471428Y-45545238D01*
X124509523Y-45526190D01*
G04 #@! TO.C,R17*
X125680952Y-44992857D02*
X125490476Y-44859523D01*
X125680952Y-44764285D02*
X125280952Y-44764285D01*
X125280952Y-44916666D01*
X125300000Y-44954761D01*
X125319047Y-44973809D01*
X125357142Y-44992857D01*
X125414285Y-44992857D01*
X125452380Y-44973809D01*
X125471428Y-44954761D01*
X125490476Y-44916666D01*
X125490476Y-44764285D01*
X125680952Y-45373809D02*
X125680952Y-45145238D01*
X125680952Y-45259523D02*
X125280952Y-45259523D01*
X125338095Y-45221428D01*
X125376190Y-45183333D01*
X125395238Y-45145238D01*
X125280952Y-45507142D02*
X125280952Y-45773809D01*
X125680952Y-45602380D01*
G04 #@! TO.C,R18*
D13*
X152272380Y-83357142D02*
X151796190Y-83023809D01*
X152272380Y-82785714D02*
X151272380Y-82785714D01*
X151272380Y-83166666D01*
X151320000Y-83261904D01*
X151367619Y-83309523D01*
X151462857Y-83357142D01*
X151605714Y-83357142D01*
X151700952Y-83309523D01*
X151748571Y-83261904D01*
X151796190Y-83166666D01*
X151796190Y-82785714D01*
X152272380Y-84309523D02*
X152272380Y-83738095D01*
X152272380Y-84023809D02*
X151272380Y-84023809D01*
X151415238Y-83928571D01*
X151510476Y-83833333D01*
X151558095Y-83738095D01*
X151700952Y-84880952D02*
X151653333Y-84785714D01*
X151605714Y-84738095D01*
X151510476Y-84690476D01*
X151462857Y-84690476D01*
X151367619Y-84738095D01*
X151320000Y-84785714D01*
X151272380Y-84880952D01*
X151272380Y-85071428D01*
X151320000Y-85166666D01*
X151367619Y-85214285D01*
X151462857Y-85261904D01*
X151510476Y-85261904D01*
X151605714Y-85214285D01*
X151653333Y-85166666D01*
X151700952Y-85071428D01*
X151700952Y-84880952D01*
X151748571Y-84785714D01*
X151796190Y-84738095D01*
X151891428Y-84690476D01*
X152081904Y-84690476D01*
X152177142Y-84738095D01*
X152224761Y-84785714D01*
X152272380Y-84880952D01*
X152272380Y-85071428D01*
X152224761Y-85166666D01*
X152177142Y-85214285D01*
X152081904Y-85261904D01*
X151891428Y-85261904D01*
X151796190Y-85214285D01*
X151748571Y-85166666D01*
X151700952Y-85071428D01*
G04 #@! TO.C,C44*
D12*
X122507142Y-54642857D02*
X122526190Y-54661904D01*
X122583333Y-54680952D01*
X122621428Y-54680952D01*
X122678571Y-54661904D01*
X122716666Y-54623809D01*
X122735714Y-54585714D01*
X122754761Y-54509523D01*
X122754761Y-54452380D01*
X122735714Y-54376190D01*
X122716666Y-54338095D01*
X122678571Y-54300000D01*
X122621428Y-54280952D01*
X122583333Y-54280952D01*
X122526190Y-54300000D01*
X122507142Y-54319047D01*
X122164285Y-54414285D02*
X122164285Y-54680952D01*
X122259523Y-54261904D02*
X122354761Y-54547619D01*
X122107142Y-54547619D01*
X121783333Y-54414285D02*
X121783333Y-54680952D01*
X121878571Y-54261904D02*
X121973809Y-54547619D01*
X121726190Y-54547619D01*
G04 #@! TO.C,C50*
X121404857Y-48742857D02*
X121423904Y-48723809D01*
X121442952Y-48666666D01*
X121442952Y-48628571D01*
X121423904Y-48571428D01*
X121385809Y-48533333D01*
X121347714Y-48514285D01*
X121271523Y-48495238D01*
X121214380Y-48495238D01*
X121138190Y-48514285D01*
X121100095Y-48533333D01*
X121062000Y-48571428D01*
X121042952Y-48628571D01*
X121042952Y-48666666D01*
X121062000Y-48723809D01*
X121081047Y-48742857D01*
X121042952Y-49104761D02*
X121042952Y-48914285D01*
X121233428Y-48895238D01*
X121214380Y-48914285D01*
X121195333Y-48952380D01*
X121195333Y-49047619D01*
X121214380Y-49085714D01*
X121233428Y-49104761D01*
X121271523Y-49123809D01*
X121366761Y-49123809D01*
X121404857Y-49104761D01*
X121423904Y-49085714D01*
X121442952Y-49047619D01*
X121442952Y-48952380D01*
X121423904Y-48914285D01*
X121404857Y-48895238D01*
X121042952Y-49371428D02*
X121042952Y-49409523D01*
X121062000Y-49447619D01*
X121081047Y-49466666D01*
X121119142Y-49485714D01*
X121195333Y-49504761D01*
X121290571Y-49504761D01*
X121366761Y-49485714D01*
X121404857Y-49466666D01*
X121423904Y-49447619D01*
X121442952Y-49409523D01*
X121442952Y-49371428D01*
X121423904Y-49333333D01*
X121404857Y-49314285D01*
X121366761Y-49295238D01*
X121290571Y-49276190D01*
X121195333Y-49276190D01*
X121119142Y-49295238D01*
X121081047Y-49314285D01*
X121062000Y-49333333D01*
X121042952Y-49371428D01*
G04 #@! TO.C,C62*
X121404857Y-55742857D02*
X121423904Y-55723809D01*
X121442952Y-55666666D01*
X121442952Y-55628571D01*
X121423904Y-55571428D01*
X121385809Y-55533333D01*
X121347714Y-55514285D01*
X121271523Y-55495238D01*
X121214380Y-55495238D01*
X121138190Y-55514285D01*
X121100095Y-55533333D01*
X121062000Y-55571428D01*
X121042952Y-55628571D01*
X121042952Y-55666666D01*
X121062000Y-55723809D01*
X121081047Y-55742857D01*
X121042952Y-56085714D02*
X121042952Y-56009523D01*
X121062000Y-55971428D01*
X121081047Y-55952380D01*
X121138190Y-55914285D01*
X121214380Y-55895238D01*
X121366761Y-55895238D01*
X121404857Y-55914285D01*
X121423904Y-55933333D01*
X121442952Y-55971428D01*
X121442952Y-56047619D01*
X121423904Y-56085714D01*
X121404857Y-56104761D01*
X121366761Y-56123809D01*
X121271523Y-56123809D01*
X121233428Y-56104761D01*
X121214380Y-56085714D01*
X121195333Y-56047619D01*
X121195333Y-55971428D01*
X121214380Y-55933333D01*
X121233428Y-55914285D01*
X121271523Y-55895238D01*
X121081047Y-56276190D02*
X121062000Y-56295238D01*
X121042952Y-56333333D01*
X121042952Y-56428571D01*
X121062000Y-56466666D01*
X121081047Y-56485714D01*
X121119142Y-56504761D01*
X121157238Y-56504761D01*
X121214380Y-56485714D01*
X121442952Y-56257142D01*
X121442952Y-56504761D01*
G04 #@! TO.C,L3*
D13*
X119802380Y-52333333D02*
X119802380Y-51857142D01*
X118802380Y-51857142D01*
X118802380Y-52571428D02*
X118802380Y-53190476D01*
X119183333Y-52857142D01*
X119183333Y-53000000D01*
X119230952Y-53095238D01*
X119278571Y-53142857D01*
X119373809Y-53190476D01*
X119611904Y-53190476D01*
X119707142Y-53142857D01*
X119754761Y-53095238D01*
X119802380Y-53000000D01*
X119802380Y-52714285D01*
X119754761Y-52619047D01*
X119707142Y-52571428D01*
G04 #@! TD*
M02*
