G04 #@! TF.GenerationSoftware,KiCad,Pcbnew,(5.0.1)-3*
G04 #@! TF.CreationDate,2020-10-01T22:01:30+02:00*
G04 #@! TF.ProjectId,QCW Ultimate,51435720556C74696D6174652E6B6963,rev?*
G04 #@! TF.SameCoordinates,Original*
G04 #@! TF.FileFunction,Profile,NP*
%FSLAX46Y46*%
G04 Gerber Fmt 4.6, Leading zero omitted, Abs format (unit mm)*
G04 Created by KiCad (PCBNEW (5.0.1)-3) date 01/10/2020 22:01:30*
%MOMM*%
%LPD*%
G01*
G04 APERTURE LIST*
%ADD10C,0.150000*%
%ADD11C,0.200000*%
G04 APERTURE END LIST*
D10*
X114000000Y-130000000D02*
G75*
G02X110000000Y-126000000I0J4000000D01*
G01*
X50000000Y-126000000D02*
G75*
G02X46000000Y-130000000I-4000000J0D01*
G01*
X110000000Y-34000000D02*
G75*
G02X114000000Y-30000000I4000000J0D01*
G01*
X46000000Y-30000000D02*
G75*
G02X50000000Y-34000000I0J-4000000D01*
G01*
X226000000Y-30000000D02*
G75*
G02X230000000Y-34000000I0J-4000000D01*
G01*
X230000000Y-126000000D02*
G75*
G02X226000000Y-130000000I-4000000J0D01*
G01*
X34000000Y-130000000D02*
G75*
G02X30000000Y-126000000I0J4000000D01*
G01*
X30000000Y-34000000D02*
G75*
G02X34000000Y-30000000I4000000J0D01*
G01*
X46000000Y-30000000D02*
X34000000Y-30000000D01*
X50000000Y-40000000D02*
X50000000Y-34000000D01*
X110000000Y-40000000D02*
X50000000Y-40000000D01*
X110000000Y-34000000D02*
X110000000Y-40000000D01*
D11*
X46000000Y-130000000D02*
X34000000Y-130000000D01*
X50000000Y-120000000D02*
X50000000Y-126000000D01*
X110000000Y-120000000D02*
X50000000Y-120000000D01*
X110000000Y-126000000D02*
X110000000Y-120000000D01*
D10*
X30000000Y-126000000D02*
X30000000Y-34000000D01*
X226000000Y-130000000D02*
X114000000Y-130000000D01*
X230000000Y-34000000D02*
X230000000Y-126000000D01*
X114000000Y-30000000D02*
X226000000Y-30000000D01*
M02*
